<svg xmlns="http://www.w3.org/2000/svg" viewBox="0 0 284 76" width="284" height="76">
  
  <g>
    <rect x="12.00" y="65.60" width="12.00" height="4.40" rx="1.8" fill="#F5F7FA"/>
    <rect x="12.00" y="59.50" width="12.00" height="4.40" rx="1.8" fill="#F5F7FA"/>
    <rect x="12.00" y="53.40" width="12.00" height="4.40" rx="1.8" fill="#F5F7FA"/>
    <rect x="29.00" y="65.60" width="12.00" height="4.40" rx="1.8" fill="#F5F7FA"/>
    <rect x="29.00" y="59.50" width="12.00" height="4.40" rx="1.8" fill="#F5F7FA"/>
    <rect x="29.00" y="53.40" width="12.00" height="4.40" rx="1.8" fill="#F5F7FA"/>
    <rect x="29.00" y="47.30" width="12.00" height="4.40" rx="1.8" fill="#F5F7FA"/>
    <rect x="29.00" y="41.20" width="12.00" height="4.40" rx="1.8" fill="#F5F7FA"/>
    <rect x="46.00" y="65.60" width="12.00" height="4.40" rx="1.8" fill="#EDD096"/>
    <rect x="46.00" y="59.50" width="12.00" height="4.40" rx="1.8" fill="#EDD096"/>
    <rect x="46.00" y="53.40" width="12.00" height="4.40" rx="1.8" fill="#EDD096"/>
    <rect x="46.00" y="47.30" width="12.00" height="4.40" rx="1.8" fill="#EDD096"/>
    <rect x="46.00" y="41.20" width="12.00" height="4.40" rx="1.8" fill="#EDD096"/>
    <rect x="46.00" y="35.10" width="12.00" height="4.40" rx="1.8" fill="#EDD096"/>
    <rect x="46.00" y="29.00" width="12.00" height="4.40" rx="1.8" fill="#EDD096"/>
    <rect x="49.70" y="6.30" width="4.60" height="3.70" rx="1.2" fill="#F5F7FA"/>
    <rect x="45.50" y="9.50" width="13.00" height="5.00" rx="1.6" fill="#F5F7FA"/>
    <path d="M47.00,14.50 L57.00,14.50 L53.70,20.50 L50.30,20.50 Z" fill="#F5F7FA"/>
  </g>
  <path d="M88.87,56.89 C95.36,56.89 99.99,53.32 99.99,48.36 C99.99,44.74 97.72,42.14 93.48,41.58 L93.48,41.36 C96.71,40.74 98.93,38.43 98.93,35.17 C98.93,30.62 94.94,27.01 88.97,27.01 C83.05,27.01 78.58,30.48 78.50,35.46 L84.24,35.46 C84.30,33.20 86.39,31.77 88.93,31.77 C91.45,31.77 93.15,33.29 93.15,35.54 C93.15,37.87 91.17,39.45 88.34,39.45 L85.65,39.45 L85.65,43.88 L88.34,43.88 C91.72,43.88 93.78,45.56 93.78,47.96 C93.78,50.33 91.76,51.95 88.89,51.95 C86.14,51.95 84.03,50.52 83.93,48.34 L77.93,48.34 C78.01,53.39 82.54,56.89 88.87,56.89 Z M114.69,56.50 C123.54,56.50 128.87,51.03 128.87,41.93 C128.87,32.87 123.54,27.40 114.79,27.40 L104.46,27.40 L104.46,56.50 L114.69,56.50 Z M110.41,51.36 L110.41,32.54 L114.44,32.54 C120.00,32.54 122.93,35.42 122.93,41.93 C122.93,48.48 120.00,51.36 114.40,51.36 L110.41,51.36 Z" fill="#EDD096"/>
  <path d="M135.34,56.50 L141.30,56.50 L141.30,46.11 L145.99,46.11 L151.54,56.50 L158.14,56.50 L151.94,45.15 C155.26,43.73 157.10,40.86 157.10,36.87 C157.10,31.15 153.31,27.40 146.69,27.40 L135.34,27.40 L135.34,56.50 Z M141.30,41.29 L141.30,32.32 L145.58,32.32 C149.23,32.32 150.95,33.94 150.95,36.87 C150.95,39.78 149.23,41.29 145.60,41.29 L141.30,41.29 Z M167.57,56.93 C170.80,56.93 172.90,55.51 173.96,53.48 L174.15,53.48 L174.15,56.50 L179.70,56.50 L179.70,41.79 C179.70,36.50 175.13,34.39 170.44,34.39 C165.56,34.39 162.05,36.56 160.93,40.35 L166.30,41.24 C166.77,39.84 168.16,38.72 170.42,38.72 C172.61,38.72 173.84,39.78 173.84,41.64 L173.84,41.73 C173.84,43.16 172.30,43.32 168.55,43.69 C164.25,44.10 160.31,45.51 160.31,50.39 C160.31,54.70 163.41,56.93 167.57,56.93 Z M169.23,52.81 C167.30,52.81 165.93,51.93 165.93,50.23 C165.93,48.48 167.38,47.63 169.55,47.32 C170.83,47.14 173.16,46.83 173.88,46.33 L173.88,48.69 C173.88,50.99 171.96,52.81 169.23,52.81 Z M190.56,43.86 C190.56,40.98 192.30,39.29 194.80,39.29 C197.26,39.29 198.74,40.91 198.74,43.63 L198.74,56.50 L204.60,56.50 L204.60,42.61 C204.60,37.49 201.63,34.39 197.10,34.39 C193.74,34.39 191.54,36.13 190.31,39.17 L190.22,34.66 L184.70,34.66 L184.70,56.50 L190.56,56.50 L190.56,43.86 Z M209.60,56.50 L215.46,56.50 L215.46,49.49 L217.14,47.59 L223.23,56.50 L230.13,56.50 L221.56,44.14 L229.72,34.66 L222.94,34.66 L215.80,43.06 L215.46,43.06 L215.46,27.40 L209.60,27.40 L209.60,56.50 Z M242.67,56.93 C247.75,56.93 251.22,54.57 252.30,50.93 L246.99,49.94 C246.36,51.62 244.82,52.51 242.77,52.51 C239.82,52.51 237.82,50.68 237.69,47.11 L252.63,47.11 L252.63,45.46 C252.63,38.01 248.08,34.39 242.37,34.39 C235.99,34.39 231.89,38.96 231.89,45.70 C231.89,52.59 235.99,56.93 242.67,56.93 Z M237.73,43.43 C237.96,40.74 239.64,38.81 242.44,38.81 C245.15,38.81 246.69,40.58 246.99,43.43 L237.73,43.43 Z M256.63,56.50 L262.50,56.50 L262.50,44.08 C262.50,41.36 264.46,39.51 267.16,39.51 C268.02,39.51 269.17,39.64 269.70,39.80 L269.70,34.57 C269.17,34.45 268.41,34.37 267.81,34.37 C265.35,34.37 263.33,35.77 262.53,38.47 L262.30,38.47 L262.30,34.66 L256.63,34.66 L256.63,56.50 Z" fill="#F5F7FA"/>
</svg>